<svg width="70" height="93" viewBox="0 0 70 93" fill="none" xmlns="http://www.w3.org/2000/svg">
<g clip-path="url(#clip0)" filter="url(#filter0_d)">
<path d="M65.8574 26.4806L65.6657 66.2815L65.6338 73.9797C65.6018 80.0968 59.7882 85.0319 52.633 85L16.8889 84.8403C9.74971 84.7924 3.96806 79.8093 4 73.6762L4.2236 26.1772C4.23957 21.226 8.07271 17.0415 13.3113 15.652L13.3273 13.0966V11.7869L56.8814 11.9946L56.8654 15.8596C62.0881 17.313 65.8733 21.5135 65.8574 26.4806Z" fill="url(#paint0_linear)"/>
<path d="M60.1236 1.77283V2.1242L60.0917 6.27678L60.0598 10.3495V10.8446C60.0598 11.6112 59.4209 12.2341 58.6543 12.2341H58.3189L56.2106 12.2182L53.8948 12.2022L51.7866 12.1862L49.4707 12.1702L47.3305 12.1383L45.0147 12.1223L42.9064 12.1064L40.5746 12.0904L38.4504 12.0744L36.1345 12.0584L34.0263 12.0265L31.7105 12.0105L29.6022 11.9945L27.2704 11.9786L25.1462 11.9626L22.8463 11.9466L20.7381 11.9307L18.4222 11.9147L16.298 11.8987L13.9822 11.8828L11.858 11.8668H11.5226C10.7559 11.8668 10.133 11.2279 10.133 10.4613V10.4453V10.0939L10.1969 1.88463V1.38952C10.1969 0.622886 10.8358 0 11.6184 0H11.9538L16.3938 0.0319429L20.8339 0.0638858L22.9581 0.0798572L25.274 0.0958286L27.3822 0.1118L31.8063 0.159714L34.1221 0.175686L36.2304 0.191657L38.5462 0.207629L40.6545 0.2236L42.9703 0.239572L45.0786 0.255543L47.3944 0.271514L49.5026 0.287486L51.8504 0.319429L53.9587 0.3354L56.2745 0.351372L58.3987 0.367343H58.7341C59.5167 0.383315 60.1236 1.0062 60.1236 1.77283Z" fill="url(#paint1_linear)"/>
<path d="M60.1236 2.14019L60.0917 6.27679L60.0598 10.3495L58.1592 10.3335L55.6357 10.3176L53.3198 10.3016H50.7804L48.4645 10.2856L45.941 10.2697L43.6251 10.2537H41.0857L38.7698 10.2377L36.2304 10.2217L33.9305 10.2058H31.391L29.0752 10.1898L26.5357 10.1738L24.2198 10.1579H21.6964L19.3805 10.1419L16.841 10.1259L14.5252 10.1099H12.0017L10.133 10.094L10.1969 1.88464L14.637 1.90061L19.4763 1.93256L21.7922 1.94853L24.3316 1.9645H26.6475L31.4869 1.99644L34.0263 2.01242H36.3422L38.8816 2.02839L41.1815 2.04436L43.721 2.06033H46.0368L48.5763 2.0763L50.8762 2.09227L53.4156 2.10824H55.7315L58.271 2.12422L60.1236 2.14019Z" fill="url(#paint2_linear)"/>
<path d="M65.8105 34.8841L4.17676 34.5927L4.04753 61.9198L65.6813 62.2112L65.8105 34.8841Z" fill="#F7F9FC"/>
<path d="M65.8215 34.884L4.18766 34.5927L4.1644 39.5119L65.7982 39.8032L65.8215 34.884Z" fill="#FBFCF7"/>
<path d="M28.2127 45.5803L24.2358 45.5644L24.2518 41.5715L18.7736 41.5555L18.7576 45.5324L14.7807 45.5165L14.7488 50.9787L18.7257 50.9947L18.7097 54.9875L24.1879 55.0035L24.2039 51.0266L28.1808 51.0426L28.2127 45.5803Z" fill="url(#paint3_linear)"/>
<path d="M55.2364 46.906L35.5276 46.8102C35.0006 46.8102 34.5693 46.379 34.5693 45.8519V45.4047C34.5693 44.8776 35.0006 44.4464 35.5276 44.4464L55.2364 44.5422C55.7634 44.5422 56.1947 44.9735 56.1947 45.5005V45.9477C56.1947 46.4748 55.7634 46.906 55.2364 46.906Z" fill="url(#paint4_linear)"/>
<path opacity="0.5" d="M55.2204 52.7675L35.5116 52.6717C34.9846 52.6717 34.5534 52.2405 34.5534 51.7134V51.2662C34.5534 50.7392 34.9846 50.3079 35.5116 50.3079L55.2204 50.4038C55.7475 50.4038 56.1787 50.835 56.1787 51.362V51.8092C56.1787 52.3363 55.7475 52.7675 55.2204 52.7675Z" fill="url(#paint5_linear)"/>
<path opacity="0.08" d="M10.133 1.77286V2.12423L10.165 6.2768L10.1969 10.3335V10.8287C10.1969 11.5953 10.8358 12.2182 11.6024 12.2182H11.9378L14.062 12.2022L16.3779 12.1862L18.4861 12.1703L20.802 12.1543L22.9102 12.1383L25.226 12.1223L27.3343 12.1064L29.6501 12.0904L31.7743 12.0744L34.0902 12.0585L36.1984 12.0425L38.5143 12.0265L40.6225 12.0105L42.9384 11.9946L45.0626 11.9786L47.3784 11.9626L49.4867 11.9467L51.8025 11.9307L53.9108 11.9147L56.2266 11.8987L58.3508 11.8828H58.6862C59.4528 11.8828 60.0757 11.2439 60.0757 10.4773V10.4613V10.1099C35.3679 11.18 11.5226 0.367371 11.5226 0.367371C10.7559 0.383342 10.133 1.00623 10.133 1.77286Z" fill="#1A6FB5"/>
</g>
<defs>
<filter id="filter0_d" x="0" y="0" width="69.8574" height="93" filterUnits="userSpaceOnUse" color-interpolation-filters="sRGB">
<feFlood flood-opacity="0" result="BackgroundImageFix"/>
<feColorMatrix in="SourceAlpha" type="matrix" values="0 0 0 0 0 0 0 0 0 0 0 0 0 0 0 0 0 0 127 0"/>
<feOffset dy="4"/>
<feGaussianBlur stdDeviation="2"/>
<feColorMatrix type="matrix" values="0 0 0 0 0 0 0 0 0 0 0 0 0 0 0 0 0 0 0.25 0"/>
<feBlend mode="normal" in2="BackgroundImageFix" result="effect1_dropShadow"/>
<feBlend mode="normal" in="SourceGraphic" in2="effect1_dropShadow" result="shape"/>
</filter>
<linearGradient id="paint0_linear" x1="4" y1="11.3333" x2="61.1389" y2="90.1944" gradientUnits="userSpaceOnUse">
<stop stop-color="#6CBCFC"/>
<stop offset="1" stop-color="#458DFC"/>
</linearGradient>
<linearGradient id="paint1_linear" x1="-625.93" y1="-39.931" x2="-23.6041" y2="2.02206" gradientUnits="userSpaceOnUse">
<stop stop-color="#B0F4FF"/>
<stop offset="0.0525488" stop-color="#A9F2FF"/>
<stop offset="0.2879" stop-color="#8DE8FE"/>
<stop offset="0.5247" stop-color="#79E1FD"/>
<stop offset="0.7618" stop-color="#6DDDFC"/>
<stop offset="1" stop-color="#69DCFC"/>
</linearGradient>
<linearGradient id="paint2_linear" x1="10.1399" y1="6.11313" x2="60.1258" y2="6.11313" gradientUnits="userSpaceOnUse">
<stop stop-color="#B0F4FF"/>
<stop offset="0.0525488" stop-color="#A9F2FF"/>
<stop offset="0.2879" stop-color="#8DE8FE"/>
<stop offset="0.5247" stop-color="#79E1FD"/>
<stop offset="0.7618" stop-color="#6DDDFC"/>
<stop offset="1" stop-color="#69DCFC"/>
</linearGradient>
<linearGradient id="paint3_linear" x1="25.9779" y1="43.0953" x2="16.5975" y2="53.9124" gradientUnits="userSpaceOnUse">
<stop stop-color="#6CBCFC"/>
<stop offset="1" stop-color="#458DFC"/>
</linearGradient>
<linearGradient id="paint4_linear" x1="56.3847" y1="45.671" x2="32.8866" y2="45.671" gradientUnits="userSpaceOnUse">
<stop stop-color="#6CBCFC"/>
<stop offset="1" stop-color="#458DFC"/>
</linearGradient>
<linearGradient id="paint5_linear" x1="34.5519" y1="51.5322" x2="56.179" y2="51.5322" gradientUnits="userSpaceOnUse">
<stop stop-color="#6CBCFC"/>
<stop offset="1" stop-color="#458DFC"/>
</linearGradient>
<clipPath id="clip0">
<rect width="61.8574" height="85" fill="white" transform="translate(4)"/>
</clipPath>
</defs>
</svg>
